<?xml version="1.0" encoding="iso-8859-1"?>
<!-- Generator: Adobe Illustrator 19.0.0, SVG Export Plug-In . SVG Version: 6.00 Build 0)  -->
<svg version="1.1" id="Capa_1" xmlns="http://www.w3.org/2000/svg" xmlns:xlink="http://www.w3.org/1999/xlink" x="0px" y="0px"
	 viewBox="0 0 512 512" style="enable-background:new 0 0 512 512;" xml:space="preserve">
<g>
	<g>
		<g>
			<path d="M426.667,102.99V58.066C439.358,50.667,448,37.059,448,21.333V10.667C448,4.771,443.229,0,437.333,0H74.667
				C68.771,0,64,4.771,64,10.667v10.667c0,15.725,8.642,29.333,21.333,36.733v44.923c0,42.271,18.021,82.729,49.438,111L181.448,256
				l-46.677,42.01c-31.417,28.271-49.438,68.729-49.438,111v44.923C72.642,461.333,64,474.941,64,490.667v10.667
				C64,507.229,68.771,512,74.667,512h362.667c5.896,0,10.667-4.771,10.667-10.667v-10.667c0-15.725-8.642-29.333-21.333-36.733
				V409.01c0-42.271-18.021-82.729-49.438-111L330.552,256l46.677-42.01C408.646,185.719,426.667,145.26,426.667,102.99z
				 M348.688,182.281l-64.292,57.865c-4.5,4.042-7.063,9.802-7.063,15.854s2.563,11.813,7.063,15.854l64.292,57.865
				C371.125,349.917,384,378.823,384,409.01V448h-26.672l-92.797-123.729c-4.021-5.375-13.042-5.375-17.063,0L154.672,448H128
				v-38.99c0-30.188,12.875-59.094,35.313-79.292l64.292-57.865c4.5-4.042,7.063-9.802,7.063-15.854s-2.563-11.813-7.063-15.854
				l-64.292-57.865C140.875,162.083,128,133.177,128,102.99V64h256v38.99C384,133.177,371.125,162.083,348.688,182.281z"/>
			<path d="M329.521,149.333H182.469c-4.219,0-8.042,2.49-9.75,6.344c-1.708,3.865-0.99,8.365,1.854,11.49l74.271,68.521
				c2.031,1.844,4.594,2.76,7.156,2.76s5.125-0.917,7.156-2.76l74.26-68.521c2.844-3.125,3.563-7.625,1.854-11.49
				C337.563,151.823,333.74,149.333,329.521,149.333z"/>
		</g>
	</g>
</g>
<g>
</g>
<g>
</g>
<g>
</g>
<g>
</g>
<g>
</g>
<g>
</g>
<g>
</g>
<g>
</g>
<g>
</g>
<g>
</g>
<g>
</g>
<g>
</g>
<g>
</g>
<g>
</g>
<g>
</g>
</svg>
