<svg id="Capa_1" enable-background="new 0 0 482.239 482.239" height="512" viewBox="0 0 482.239 482.239" width="512" xmlns="http://www.w3.org/2000/svg"><path d="m378.902 275.565c-34.183 0-64.306 16.874-83.127 42.521l-94.044-47.033c2.912-9.539 4.943-19.456 4.943-29.934s-2.031-20.397-4.943-29.934l94.044-47.033c18.821 25.647 48.944 42.521 83.127 42.521 56.983 0 103.337-46.354 103.337-103.337s-46.353-103.336-103.337-103.336-103.337 46.354-103.337 103.337c0 10.478 2.033 20.395 4.945 29.932l-94.047 47.035c-18.821-25.647-48.944-42.521-83.127-42.521-56.983 0-103.336 46.353-103.336 103.337s46.353 103.337 103.337 103.337c34.183 0 64.306-16.874 83.127-42.521l94.044 47.035c-2.912 9.536-4.943 19.453-4.943 29.932 0 56.983 46.353 103.337 103.337 103.337s103.337-46.354 103.337-103.337-46.354-103.338-103.337-103.338zm0-241.119c37.995 0 68.891 30.914 68.891 68.891 0 37.978-30.897 68.891-68.891 68.891-37.995 0-68.891-30.914-68.891-68.891s30.897-68.891 68.891-68.891zm-275.565 275.565c-37.995 0-68.891-30.914-68.891-68.891 0-37.978 30.897-68.891 68.891-68.891 37.995 0 68.891 30.914 68.891 68.891s-30.896 68.891-68.891 68.891zm275.565 137.782c-37.995 0-68.891-30.914-68.891-68.891s30.897-68.891 68.891-68.891c37.995 0 68.891 30.914 68.891 68.891 0 37.978-30.896 68.891-68.891 68.891z"/></svg>