<svg height="512pt" viewBox="0 0 512 512" width="512pt" xmlns="http://www.w3.org/2000/svg"><path d="m502.121094 1.214844c-5.972656-2.453125-12.863282-1.109375-17.429688 3.476562l-57.597656 57.601563c-47.488281-39.210938-108.417969-62.292969-171.09375-62.292969-141.164062 0-256 114.835938-256 256s114.835938 256 256 256c68.332031 0 132.609375-26.644531 180.96875-75.03125 8.34375-8.339844 8.34375-21.820312 0-30.164062-8.339844-8.339844-21.820312-8.339844-30.164062 0-40.296876 40.320312-93.867188 62.527343-150.804688 62.527343-117.632812 0-213.332031-95.699219-213.332031-213.332031s95.699219-213.332031 213.332031-213.332031c51.414062 0 101.332031 18.496093 140.777344 49.917969l-50.75 50.773437c-4.585938 4.585937-5.929688 11.457031-3.476563 17.429687 2.472657 5.972657 8.296875 9.878907 14.78125 9.878907h138.667969c8.832031 0 16-7.167969 16-16v-138.667969c0-6.484375-3.902344-12.308594-9.878906-14.785156zm0 0"/></svg>