<?xml version="1.0" encoding="iso-8859-1"?>
<!-- Generator: Adobe Illustrator 19.0.0, SVG Export Plug-In . SVG Version: 6.00 Build 0)  -->
<svg version="1.1" id="Layer_1" xmlns="http://www.w3.org/2000/svg" xmlns:xlink="http://www.w3.org/1999/xlink" x="0px" y="0px"
	 viewBox="0 0 511.926 511.926" style="enable-background:new 0 0 511.926 511.926;" xml:space="preserve">
<g>
	<g>
		<path d="M511.76,244.47c-0.043-0.469-0.171-0.853-0.256-1.301c-0.341-1.707-1.024-3.243-2.069-4.544
			c-0.128-0.171-0.107-0.405-0.256-0.555L295.846,3.403c-0.704-0.768-1.557-1.344-2.411-1.856c-0.149-0.085-0.235-0.256-0.405-0.341
			c-0.021,0-0.043,0-0.064-0.021c-1.152-0.619-2.411-1.003-3.691-1.152c-0.64-0.085-1.237,0.021-1.856,0.043
			c-0.661,0.043-1.301,0.021-1.941,0.192c-0.683,0.171-1.301,0.469-1.941,0.768c-0.384,0.171-0.811,0.235-1.173,0.469L5.03,172.171
			c-0.149,0.085-0.192,0.256-0.32,0.363c-1.664,1.109-3.115,2.517-3.968,4.501s-0.853,4.032-0.512,5.995
			c0.043,0.213-0.107,0.405-0.043,0.619l64,277.333c0.043,0.213,0.256,0.32,0.299,0.533c0.533,1.792,1.387,3.456,2.773,4.779
			c0.171,0.149,0.384,0.213,0.555,0.363c0.832,0.704,1.707,1.387,2.795,1.835c0.576,0.235,1.152,0.213,1.728,0.341
			c0.256,0.064,0.427,0.277,0.683,0.32l288,42.667c0.512,0.064,1.045,0.107,1.557,0.107c1.664,0,3.285-0.533,4.8-1.323
			c0.341-0.171,0.661-0.341,1.003-0.555c0.256-0.171,0.555-0.235,0.811-0.448c1.131-0.896,2.005-1.963,2.667-3.157
			c0.021-0.043,0.085-0.064,0.107-0.107l138.667-256c0.064-0.128,0.021-0.277,0.085-0.405c0.704-1.451,1.195-2.987,1.195-4.693
			C511.91,244.961,511.782,244.747,511.76,244.47z M290.086,28.811l187.029,205.76H177.872L290.086,28.811z M259.344,40.673
			L155.195,231.606L33.702,179.531L259.344,40.673z M25.702,199.307l120.427,51.605L77.307,422.987L25.702,199.307z M89.467,449.974
			l73.493-183.701l174.528,220.459L89.467,449.974z M360.891,481.91L181.968,255.905h301.376L360.891,481.91z"/>
	</g>
</g>
<g>
</g>
<g>
</g>
<g>
</g>
<g>
</g>
<g>
</g>
<g>
</g>
<g>
</g>
<g>
</g>
<g>
</g>
<g>
</g>
<g>
</g>
<g>
</g>
<g>
</g>
<g>
</g>
<g>
</g>
</svg>
