<svg id="Capa_1" enable-background="new 0 0 512 512" height="512" viewBox="0 0 512 512" width="512" xmlns="http://www.w3.org/2000/svg"><g><g><path d="m202.52 250.88c-26.66 0-48.35-21.694-48.35-48.36 0-7.101 1.51-13.951 4.488-20.361 1.746-3.756 6.207-5.385 9.962-3.641 3.756 1.746 5.386 6.206 3.641 9.962-2.052 4.415-3.092 9.138-3.092 14.04 0 18.395 14.961 33.36 33.35 33.36 18.395 0 33.36-14.965 33.36-33.36 0-18.389-14.965-33.35-33.36-33.35-4.539 0-8.93.894-13.051 2.656-3.808 1.627-8.216-.138-9.845-3.947-1.629-3.808.138-8.216 3.946-9.845 5.996-2.564 12.371-3.865 18.949-3.865 26.666 0 48.36 21.69 48.36 48.35.002 26.667-21.692 48.361-48.358 48.361z"/><path d="m101.993 234.188c-17.459 0-31.663-14.204-31.663-31.663s14.204-31.663 31.663-31.663 31.663 14.204 31.663 31.663-14.204 31.663-31.663 31.663zm0-48.326c-9.188 0-16.663 7.475-16.663 16.663s7.475 16.663 16.663 16.663 16.663-7.475 16.663-16.663-7.475-16.663-16.663-16.663z"/><path d="m23.537 226.062c-12.978 0-23.537-10.559-23.537-23.538 0-12.978 10.559-23.537 23.537-23.537s23.537 10.559 23.537 23.537c0 12.979-10.558 23.538-23.537 23.538zm0-32.074c-4.708 0-8.537 3.83-8.537 8.537 0 4.708 3.83 8.537 8.537 8.537s8.537-3.83 8.537-8.537c0-4.708-3.829-8.537-8.537-8.537z"/><path d="m309.476 250.883c-26.665 0-48.358-21.693-48.358-48.358s21.693-48.358 48.358-48.358c26.664 0 48.357 21.693 48.357 48.358 0 26.664-21.693 48.358-48.357 48.358zm0-81.716c-18.394 0-33.358 14.964-33.358 33.358s14.965 33.358 33.358 33.358 33.357-14.964 33.357-33.358-14.964-33.358-33.357-33.358z"/><path d="m309.476 357.833c-26.665 0-48.358-21.693-48.358-48.358s21.693-48.358 48.358-48.358c26.664 0 48.357 21.693 48.357 48.358s-21.693 48.358-48.357 48.358zm0-81.716c-18.394 0-33.358 14.964-33.358 33.358s14.965 33.358 33.358 33.358 33.357-14.964 33.357-33.358c0-18.393-14.964-33.358-33.357-33.358z"/><path d="m410.007 234.188c-17.459 0-31.663-14.204-31.663-31.663s14.204-31.663 31.663-31.663 31.663 14.204 31.663 31.663-14.204 31.663-31.663 31.663zm0-48.326c-9.188 0-16.663 7.475-16.663 16.663s7.475 16.663 16.663 16.663 16.663-7.475 16.663-16.663-7.475-16.663-16.663-16.663z"/><path d="m488.463 226.062c-12.979 0-23.537-10.559-23.537-23.537s10.559-23.537 23.537-23.537 23.537 10.558 23.537 23.536c0 12.979-10.559 23.538-23.537 23.538zm0-32.074c-4.707 0-8.537 3.83-8.537 8.537 0 4.708 3.83 8.537 8.537 8.537s8.537-3.83 8.537-8.537c0-4.708-3.83-8.537-8.537-8.537z"/><path d="m202.524 357.833c-26.665 0-48.358-21.693-48.358-48.358s21.693-48.358 48.358-48.358 48.358 21.693 48.358 48.358c.001 26.665-21.693 48.358-48.358 48.358zm0-81.716c-18.394 0-33.358 14.964-33.358 33.358s14.964 33.358 33.358 33.358 33.358-14.964 33.358-33.358c.001-18.393-14.964-33.358-33.358-33.358z"/><path d="m101.993 341.138c-17.459 0-31.663-14.204-31.663-31.663s14.204-31.663 31.663-31.663 31.663 14.204 31.663 31.663-14.204 31.663-31.663 31.663zm0-48.325c-9.188 0-16.663 7.475-16.663 16.663s7.475 16.663 16.663 16.663 16.663-7.475 16.663-16.663-7.475-16.663-16.663-16.663z"/><path d="m23.537 333.012c-12.978 0-23.537-10.558-23.537-23.536 0-12.979 10.559-23.537 23.537-23.537s23.537 10.559 23.537 23.537-10.558 23.536-23.537 23.536zm0-32.074c-4.708 0-8.537 3.83-8.537 8.537s3.83 8.537 8.537 8.537 8.537-3.83 8.537-8.537-3.829-8.537-8.537-8.537z"/><path d="m410.007 341.138c-17.459 0-31.663-14.204-31.663-31.663s14.204-31.663 31.663-31.663 31.663 14.204 31.663 31.663-14.204 31.663-31.663 31.663zm0-48.325c-9.188 0-16.663 7.475-16.663 16.663s7.475 16.663 16.663 16.663 16.663-7.475 16.663-16.663-7.475-16.663-16.663-16.663z"/><path d="m395.744 437.01c-1.535 0-3.084-.469-4.418-1.444-8.132-5.94-12.986-15.494-12.986-25.557 0-17.463 14.207-31.67 31.67-31.67 17.457 0 31.66 14.207 31.66 31.67 0 10.044-4.847 19.595-12.965 25.548-3.341 2.451-8.033 1.728-10.483-1.613-2.449-3.34-1.728-8.034 1.612-10.483 4.28-3.139 6.836-8.168 6.836-13.452 0-9.192-7.474-16.67-16.66-16.67-9.191 0-16.67 7.478-16.67 16.67 0 5.292 2.555 10.318 6.834 13.443 3.345 2.443 4.076 7.136 1.633 10.48-1.469 2.012-3.75 3.078-6.063 3.078z"/><path d="m488.463 333.012c-12.979 0-23.537-10.559-23.537-23.537 0-12.979 10.559-23.537 23.537-23.537s23.537 10.559 23.537 23.538c0 12.978-10.559 23.536-23.537 23.536zm0-32.074c-4.707 0-8.537 3.83-8.537 8.537s3.83 8.537 8.537 8.537 8.537-3.83 8.537-8.537-3.83-8.537-8.537-8.537z"/><path d="m309.476 133.656c-17.459 0-31.663-14.204-31.663-31.663s14.204-31.663 31.663-31.663 31.662 14.204 31.662 31.663-14.203 31.663-31.662 31.663zm0-48.325c-9.188 0-16.663 7.475-16.663 16.663s7.475 16.663 16.663 16.663 16.662-7.475 16.662-16.663-7.475-16.663-16.662-16.663z"/><path d="m410.007 133.656c-17.459 0-31.663-14.204-31.663-31.663s14.204-31.663 31.663-31.663 31.663 14.204 31.663 31.663-14.204 31.663-31.663 31.663zm0-48.325c-9.188 0-16.663 7.475-16.663 16.663s7.475 16.663 16.663 16.663 16.663-7.475 16.663-16.663-7.475-16.663-16.663-16.663z"/><path d="m101.993 441.669c-17.459 0-31.663-14.204-31.663-31.663s14.204-31.663 31.663-31.663 31.663 14.204 31.663 31.663-14.204 31.663-31.663 31.663zm0-48.325c-9.188 0-16.663 7.475-16.663 16.663s7.475 16.663 16.663 16.663 16.663-7.475 16.663-16.663-7.475-16.663-16.663-16.663z"/><path d="m101.993 133.656c-17.459 0-31.663-14.204-31.663-31.663s14.204-31.663 31.663-31.663 31.663 14.204 31.663 31.663-14.204 31.663-31.663 31.663zm0-48.325c-9.188 0-16.663 7.475-16.663 16.663s7.475 16.663 16.663 16.663 16.663-7.475 16.663-16.663-7.475-16.663-16.663-16.663z"/><path d="m309.476 47.074c-12.979 0-23.537-10.559-23.537-23.537-.001-12.978 10.558-23.537 23.537-23.537s23.537 10.559 23.537 23.537-10.559 23.537-23.537 23.537zm0-32.074c-4.707 0-8.537 3.83-8.537 8.537s3.83 8.537 8.537 8.537 8.537-3.83 8.537-8.537-3.83-8.537-8.537-8.537z"/><path d="m309.476 441.669c-17.459 0-31.663-14.204-31.663-31.663s14.204-31.663 31.663-31.663 31.662 14.204 31.662 31.663-14.203 31.663-31.662 31.663zm0-48.325c-9.188 0-16.663 7.475-16.663 16.663s7.475 16.663 16.663 16.663 16.662-7.475 16.662-16.663-7.475-16.663-16.662-16.663z"/><path d="m309.476 512c-12.979 0-23.537-10.559-23.537-23.537s10.559-23.537 23.537-23.537 23.537 10.559 23.537 23.537-10.559 23.537-23.537 23.537zm0-32.074c-4.707 0-8.537 3.83-8.537 8.537s3.83 8.537 8.537 8.537 8.537-3.83 8.537-8.537-3.83-8.537-8.537-8.537z"/><path d="m202.524 133.656c-17.459 0-31.663-14.204-31.663-31.663s14.204-31.663 31.663-31.663 31.663 14.204 31.663 31.663-14.204 31.663-31.663 31.663zm0-48.325c-9.188 0-16.663 7.475-16.663 16.663s7.475 16.663 16.663 16.663 16.663-7.475 16.663-16.663-7.475-16.663-16.663-16.663z"/><path d="m202.524 47.074c-12.978 0-23.537-10.559-23.537-23.537.001-12.978 10.559-23.537 23.537-23.537 12.979 0 23.537 10.559 23.537 23.537.001 12.978-10.558 23.537-23.537 23.537zm0-32.074c-4.707 0-8.537 3.83-8.537 8.537s3.83 8.537 8.537 8.537c4.708 0 8.537-3.83 8.537-8.537s-3.829-8.537-8.537-8.537z"/><path d="m202.524 441.669c-17.459 0-31.663-14.204-31.663-31.663s14.204-31.663 31.663-31.663 31.663 14.204 31.663 31.663-14.204 31.663-31.663 31.663zm0-48.325c-9.188 0-16.663 7.475-16.663 16.663s7.475 16.663 16.663 16.663 16.663-7.475 16.663-16.663-7.475-16.663-16.663-16.663z"/><path d="m202.524 512c-12.978 0-23.537-10.559-23.537-23.537s10.559-23.537 23.537-23.537c12.979 0 23.537 10.559 23.537 23.537s-10.558 23.537-23.537 23.537zm0-32.074c-4.707 0-8.537 3.83-8.537 8.537s3.83 8.537 8.537 8.537c4.708 0 8.537-3.83 8.537-8.537s-3.829-8.537-8.537-8.537z"/></g></g></svg>