<svg height="512" viewBox="0 0 512 512" width="512" xmlns="http://www.w3.org/2000/svg"><g id="out_line" data-name="out line"><path d="m171.961 488.7a103.659 103.659 0 0 0 16.835-1.374c1.786-.289 3.622-.641 5.442-1.045a103.262 103.262 0 0 0 29.062-11.235c27.053-15.451 48.362-43.658 60-79.425a203.035 203.035 0 0 0 8.271-37.188c3.857.377 7.749.587 11.679.587 23.832 0 48.867-6.891 73.462-20.345 31.792-17.391 59.943-44.268 81.409-77.725 48.517-75.59 49.844-165.336 3.163-213.389a102.388 102.388 0 0 0 -27.647-20.271c-30.955-15.531-69.063-15.041-107.3 1.377-37.676 16.175-72.165 46.5-97.116 85.382a248.086 248.086 0 0 0 -19.182 36.1c-21.863-16.077-46.4-25.332-71.548-25.649a103.012 103.012 0 0 0 -23.426 2.4 99.866 99.866 0 0 0 -10.449 2.9c-32.844 10.973-59.388 38.318-74.741 77-15.13 38.1-17.984 83.936-8.039 129.051 19.678 89.315 83.6 152.849 150.125 152.849zm283.166-423.988c16.139 19.931 24.679 47.725 24.189 79.247-.556 35.916-12.866 74.4-34.66 108.351-20.024 31.209-46.174 56.22-75.622 72.329-25.084 13.721-51.387 19.966-75 17.955a239.052 239.052 0 0 0 87.91-147.286 223.685 223.685 0 0 1 64.1-121.724zm-36.019-8.412 12.308-12.017c1 .589 2.006 1.194 3 1.827a86.547 86.547 0 0 1 9.568 7.122l-9.118 8.9a239.671 239.671 0 0 0 -68.688 130.438 223.059 223.059 0 0 1 -72.97 129.923q-.324-9.708-1.457-19.543a239.189 239.189 0 0 0 63.261-124.921 222.3 222.3 0 0 1 64.096-121.729zm-176.424 66.39c44.258-68.972 118.056-104.59 173.164-85.564l-7.917 7.73a238.192 238.192 0 0 0 -68.683 130.435 223.076 223.076 0 0 1 -50.677 107.374c-.353-1.778-.718-3.557-1.11-5.336-10.605-48.132-34.258-89.2-64.513-116.609a231.16 231.16 0 0 1 19.736-38.03zm-96.5 30.979.126-12.7c25.508 2.634 51.226 16.2 73.215 38.786 25.055 25.741 43.634 61.617 52.316 101.018 8.334 37.836 7 76.866-3.749 109.9-8.229 25.281-21.66 46.215-38.582 60.535a239.064 239.064 0 0 0 -42.32-166.226 222.415 222.415 0 0 1 -41.021-129.062c0-.746 0-1.483.01-2.251zm-31.25 6.887.163-17.2c1.129-.3 2.263-.579 3.405-.83a86.949 86.949 0 0 1 11.809-1.755l-.126 12.722c-.011.814-.011 1.616-.011 2.43a238.328 238.328 0 0 0 43.956 138.3 223.134 223.134 0 0 1 39.247 157.239l-1.463 11.561a87.312 87.312 0 0 1 -15.017 6.057l1.1-8.719a240.977 240.977 0 0 0 1.9-30.155 238.346 238.346 0 0 0 -43.957-138.334 222.252 222.252 0 0 1 -41.011-131.316zm-15.9-11.219-.105 11.063a238.158 238.158 0 0 0 43.947 140.71 222.434 222.434 0 0 1 41.024 129.09 224.921 224.921 0 0 1 -1.776 28.146l-1.764 13.947c-28.477 2.7-58.094-8.694-84.035-32.5-28.455-26.115-49.359-64.251-58.862-107.384-17.643-80.027 9.193-157.444 61.571-183.072z"/><path d="m290.149 115.721a7.973 7.973 0 0 0 5.447-2.142c3.356-3.122 6.884-6.14 10.486-8.97a8 8 0 1 0 -9.887-12.58c-3.948 3.1-7.816 6.411-11.5 9.834a8 8 0 0 0 5.45 13.858z"/><path d="m249.27 164.845a7.994 7.994 0 0 0 10.724-3.6 166.483 166.483 0 0 1 18.325-28.927 8 8 0 1 0 -12.56-9.91 182.321 182.321 0 0 0 -20.091 31.714 8 8 0 0 0 3.602 10.723z"/><path d="m94.5 413.242a8 8 0 0 0 12.162-10.4c-2.979-3.485-5.849-7.136-8.525-10.852a8 8 0 0 0 -12.983 9.352c2.939 4.076 6.083 8.079 9.346 11.9z"/><path d="m114.237 433.024a182.34 182.34 0 0 0 30.847 21.4 8 8 0 1 0 7.715-14.017 166.344 166.344 0 0 1 -28.136-19.517 8 8 0 0 0 -10.426 12.136z"/></g></svg>