<?xml version="1.0" encoding="iso-8859-1"?>
<!-- Generator: Adobe Illustrator 19.0.0, SVG Export Plug-In . SVG Version: 6.00 Build 0)  -->
<svg version="1.1" id="Capa_1" xmlns="http://www.w3.org/2000/svg" xmlns:xlink="http://www.w3.org/1999/xlink" x="0px" y="0px"
	 viewBox="0 0 512 512" style="enable-background:new 0 0 512 512;" xml:space="preserve">
<g>
	<g>
		<circle cx="337.921" cy="236" r="10"/>
	</g>
</g>
<g>
	<g>
		<path d="M339.637,278.848c-5.459-0.811-10.548,2.964-11.357,8.427c-2.733,18.455-18.333,33.761-41.729,40.945
			c-25.007,7.679-59.718,5.105-80.893-17.954c-3.736-4.068-10.062-4.336-14.129-0.602c-4.068,3.736-4.337,10.062-0.602,14.129
			c12.258,13.349,28.907,22.447,48.147,26.31c6.794,1.364,13.842,2.041,20.936,2.041c10.958,0,22.024-1.615,32.412-4.805
			c30.95-9.503,51.751-30.861,55.642-57.134C348.873,284.742,345.1,279.657,339.637,278.848z"/>
	</g>
</g>
<g>
	<g>
		<path d="M478.626,190.411c-18.176-21.071-43.262-34.733-73.458-40.22c28.91-19.51,53.846-38.926,71.626-55.868
			c27.109-25.831,36.199-43.983,28.609-57.122c-8.446-14.634-32.827-14.533-76.733,0.321
			c-37.097,12.55-83.311,34.347-130.127,61.377c-8.087,4.668-16.098,9.448-23.936,14.265c-5.813-16.417-1.979-35.17,10.847-51.431
			c9.607-12.18,11.752-27.65,5.599-40.375C284.603,8.021,270.447,0.036,253.162,0h-0.47c-61.006,0-120.677,24.071-168.02,67.779
			C37.27,111.541,8.25,169.473,2.958,230.902c-6.367,73.98,17.281,144.314,66.586,198.045C117.978,481.729,186.643,512,257.932,512
			c38.38,0,74.41-7.022,107.087-20.873c29.88-12.665,56.414-30.749,78.866-53.752c20.817-21.329,37.23-45.882,48.783-72.979
			c10.994-25.784,17-53.108,17.372-79.017C510.581,247.701,499.718,214.862,478.626,190.411z M275.776,135.988
			c10.584-6.675,21.607-13.326,32.766-19.768c43.286-24.992,86.39-45.577,121.373-57.964c38.51-13.635,54.277-12.745,57.953-10.985
			c-0.318,2.327-3.208,12.68-28.479,35.952c-21.102,19.433-51.917,42.286-86.768,64.349c-11.017,6.977-22.483,13.911-34.078,20.607
			c-15.985,9.226-31.958,17.853-47.635,25.752c-3.128-9.129-7.137-17.988-12.016-26.44c-4.729-8.191-10.214-15.881-16.345-22.996
			C266.886,141.651,271.301,138.807,275.776,135.988z M272.79,202.802c-28.237,13.391-54.147,23.6-74.838,29.522
			c-1.077-5.173-2.971-10.173-5.658-14.831c-2.547-4.415-5.742-8.362-9.435-11.766c15.49-14.949,37.292-32.269,62.964-49.988
			c5.96,6.661,11.244,13.947,15.749,21.75C266.231,185.559,269.981,194.047,272.79,202.802z M490.042,285.092
			C488.616,384.6,399.469,492,257.932,492c-65.702,0-128.995-27.91-173.651-76.574c-45.473-49.554-67.276-114.477-61.396-182.808
			C32.984,115.38,136.075,20,252.692,20h0.449c9.567,0.02,16.823,3.688,19.906,10.065c2.835,5.862,1.603,13.07-3.297,19.282
			c-18.023,22.85-22.543,50.953-12.36,74.648c-5.361,3.454-10.63,6.923-15.721,10.364c-0.024,0.016-0.048,0.032-0.071,0.048
			c-31.799,21.457-58.651,42.8-76.517,60.761c-13.55-4.631-28.438-3.281-41.092,4.023c-20.776,12.001-48.056,67.926-53.313,79.015
			c-1.408,2.968-1.267,6.439,0.375,9.284c1.643,2.845,4.578,4.702,7.852,4.968c5.527,0.448,21.222,1.58,38.691,1.58
			c21.198,0,45.006-1.668,56.396-8.247c12.338-7.122,20.89-19.022,23.852-32.702c24.523-6.437,56.564-19.03,91.266-35.937
			c19.443-9.463,39.439-20.112,59.435-31.652c10.143-5.858,20.171-11.897,29.917-17.988c0.059,0.003,0.116,0.012,0.175,0.014
			C461.984,169.916,490.835,229.824,490.042,285.092z M178.942,244.37c-0.64,10.057-6.228,19.065-14.952,24.101
			c-9.457,5.463-41.945,6.199-68.62,4.979c12.275-23.704,29.154-51.47,38.621-56.938c8.938-5.16,19.744-5.386,28.912-0.603
			c5.039,2.624,9.211,6.627,12.067,11.578C177.941,232.637,179.314,238.475,178.942,244.37z"/>
	</g>
</g>
<g>
	<g>
		<path d="M177.922,61.84c-22.056,0-40,17.944-40,40c0,22.056,17.944,40,40,40c22.056,0,40-17.944,40-40
			C217.922,79.784,199.978,61.84,177.922,61.84z M177.922,121.84c-11.028,0-20-8.972-20-20c0-11.028,8.972-20,20-20s20,8.972,20,20
			C197.922,112.868,188.95,121.84,177.922,121.84z"/>
	</g>
</g>
<g>
	<g>
		<path d="M127.922,330.55c-22.056,0-40,17.944-40,40c0,22.056,17.944,40,40,40c22.056,0,40-17.944,40-40
			C167.922,348.494,149.978,330.55,127.922,330.55z M127.922,390.55c-11.028,0-20-8.972-20-20s8.972-20,20-20s20,8.972,20,20
			S138.95,390.55,127.922,390.55z"/>
	</g>
</g>
<g>
	<g>
		<path d="M227.922,390.55c-22.056,0-40,17.944-40,40c0,22.056,17.944,40,40,40c22.056,0,40-17.944,40-40
			C267.922,408.494,249.978,390.55,227.922,390.55z M227.922,450.55c-11.028,0-20-8.972-20-20s8.972-20,20-20s20,8.972,20,20
			S238.95,450.55,227.922,450.55z"/>
	</g>
</g>
<g>
	<g>
		<path d="M347.922,370.55c-22.056,0-40,17.944-40,40c0,22.056,17.944,40,40,40c22.056,0,40-17.944,40-40
			C387.922,388.494,369.978,370.55,347.922,370.55z M347.922,430.55c-11.028,0-20-8.972-20-20s8.972-20,20-20s20,8.972,20,20
			S358.95,430.55,347.922,430.55z"/>
	</g>
</g>
<g>
	<g>
		<path d="M427.922,270.55c-22.056,0-40,17.944-40,40c0,22.056,17.944,40,40,40c22.056,0,40-17.944,40-40
			C467.922,288.494,449.978,270.55,427.922,270.55z M427.922,330.55c-11.028,0-20-8.972-20-20s8.972-20,20-20s20,8.972,20,20
			S438.95,330.55,427.922,330.55z"/>
	</g>
</g>
<g>
</g>
<g>
</g>
<g>
</g>
<g>
</g>
<g>
</g>
<g>
</g>
<g>
</g>
<g>
</g>
<g>
</g>
<g>
</g>
<g>
</g>
<g>
</g>
<g>
</g>
<g>
</g>
<g>
</g>
</svg>
