<?xml version="1.0" encoding="iso-8859-1"?>
<!-- Generator: Adobe Illustrator 19.0.0, SVG Export Plug-In . SVG Version: 6.00 Build 0)  -->
<svg version="1.1" id="Layer_1" xmlns="http://www.w3.org/2000/svg" xmlns:xlink="http://www.w3.org/1999/xlink" x="0px" y="0px"
	 viewBox="0 0 512.017 512.017" style="enable-background:new 0 0 512.017 512.017;" xml:space="preserve">
<g>
	<g>
		<path d="M511.467,220.645l-42.667-128c-0.043-0.149-0.149-0.256-0.213-0.384c-0.128-0.341-0.363-0.661-0.533-0.981
			c-0.448-0.853-0.939-1.664-1.579-2.389c-0.107-0.128-0.149-0.299-0.277-0.427c-0.235-0.235-0.533-0.299-0.768-0.512
			c-0.405-0.341-0.704-0.747-1.152-1.024L325.611,1.594c-1.899-1.173-4.053-1.664-6.357-1.557L170.517,10.661
			c-0.064,0-0.107,0-0.171,0.021l-0.427,0.021c-0.171,0-0.299,0.149-0.469,0.171c-1.067,0.128-2.112,0.256-3.136,0.704
			c-0.491,0.213-0.832,0.619-1.28,0.896c-0.192,0.128-0.448,0.107-0.619,0.235L47.083,98.042c-1.984,1.429-3.413,3.499-4.032,5.867
			l-42.667,160c-0.064,0.235,0.085,0.469,0.021,0.704C0.256,265.317,0,265.935,0,266.661c0,1.088,0.32,2.069,0.619,3.072
			c0.043,0.171-0.043,0.341,0.021,0.512l0.192,0.533c0,0.021,0,0.043,0.021,0.043l53.12,148.757
			c0.811,2.304,2.368,4.224,4.437,5.504l138.667,85.333c0.213,0.128,0.512,0.085,0.725,0.213c0.384,0.213,0.683,0.533,1.109,0.683
			c1.237,0.469,2.496,0.683,3.755,0.683c0.469,0,0.939-0.021,1.429-0.085l160-21.333c1.749-0.213,3.435-0.896,4.864-1.941
			l117.333-85.333c0.661-0.469,1.067-1.152,1.6-1.749c0.235-0.277,0.576-0.384,0.789-0.683c0.085-0.107,0.085-0.256,0.171-0.384
			c0.405-0.619,0.64-1.323,0.917-2.027c0.235-0.64,0.533-1.259,0.661-1.963c0.021-0.171,0.149-0.32,0.171-0.491l21.333-170.667
			C512.128,223.759,511.979,222.159,511.467,220.645z M317.333,21.562l124.245,76.437l-50.261,50.261l-170.432-40.107L186.56,30.906
			L317.333,21.562z M394.24,334.543l-156.288,68.373L130.411,266.042l87.808-136.576l166.251,39.104L394.24,334.543z
			 M62.677,113.082l103.595-75.349l34.965,78.677l-89.728,139.563H24.555L62.677,113.082z M197.227,485.455L72.789,408.89
			L25.813,277.327h86.336l110.421,140.544L197.227,485.455z M358.592,469.775l-139.691,18.624l24.171-64.448l160.981-70.443
			l57.707,41.216L358.592,469.775z M471.659,375.61l-55.979-39.979l-10.091-171.477l48.427-48.427l36.459,109.333L471.659,375.61z"
			/>
	</g>
</g>
<g>
</g>
<g>
</g>
<g>
</g>
<g>
</g>
<g>
</g>
<g>
</g>
<g>
</g>
<g>
</g>
<g>
</g>
<g>
</g>
<g>
</g>
<g>
</g>
<g>
</g>
<g>
</g>
<g>
</g>
</svg>
