<?xml version="1.0" encoding="iso-8859-1"?>
<!-- Generator: Adobe Illustrator 19.0.0, SVG Export Plug-In . SVG Version: 6.00 Build 0)  -->
<svg version="1.1" id="Capa_1" xmlns="http://www.w3.org/2000/svg" xmlns:xlink="http://www.w3.org/1999/xlink" x="0px" y="0px"
	 viewBox="0 0 512.005 512.005" style="enable-background:new 0 0 512.005 512.005;" xml:space="preserve">
<g>
	<g>
		<path d="M501.333,352.003h-32c-133.397,0-173.803-64.277-216.597-132.288C207.893,148.397,161.515,74.669,10.667,74.669
			C4.779,74.669,0,79.448,0,85.336s4.779,10.667,10.667,10.667c139.072,0,180.331,65.6,224,135.061
			c43.989,69.931,89.472,142.272,234.667,142.272h32c5.888,0,10.667-4.779,10.667-10.667
			C512,356.781,507.221,352.003,501.333,352.003z"/>
	</g>
</g>
<g>
	<g>
		<path d="M501.333,138.669h-32c-83.328,0-140.843,22.933-186.389,74.389c-3.925,4.395-3.499,11.136,0.917,15.04
			c2.027,1.813,4.544,2.688,7.061,2.688c2.923,0,5.867-1.195,7.979-3.605c27.733-31.253,72.128-67.179,170.432-67.179h32
			c5.888,0,10.667-4.779,10.667-10.667S507.221,138.669,501.333,138.669z"/>
	</g>
</g>
<g>
	<g>
		<path d="M244.267,285.656c-4.885-3.093-11.52-1.621-14.699,3.371l-3.051,4.821c-3.2,4.949-1.728,11.541,3.221,14.72
			c1.771,1.152,3.776,1.685,5.76,1.685c3.499,0,6.933-1.728,8.981-4.928l3.157-4.971
			C250.773,295.384,249.259,288.792,244.267,285.656z"/>
	</g>
</g>
<g>
	<g>
		<path d="M241.216,290.584c-4.885-3.115-11.52-1.685-14.72,3.264c-42.539,66.837-88.171,122.155-215.829,122.155
			C4.779,416.003,0,420.781,0,426.669c0,5.888,4.779,10.667,10.667,10.667c138.304,0,189.525-62.464,233.813-132.032
			C247.659,300.333,246.187,293.741,241.216,290.584z"/>
	</g>
</g>
<g>
	<g>
		<path d="M508.864,355.16l-64-64c-4.16-4.16-10.923-4.16-15.083,0c-4.16,4.16-4.16,10.923,0,15.083l56.448,56.448l-56.448,56.448
			c-4.16,4.16-4.16,10.923,0,15.083c2.091,2.069,4.821,3.115,7.552,3.115c2.731,0,5.461-1.045,7.531-3.093l64-64
			C513.024,366.083,513.024,359.32,508.864,355.16z"/>
	</g>
</g>
<g>
	<g>
		<path d="M508.885,141.805l-64-64c-4.16-4.16-10.923-4.16-15.083,0c-4.16,4.16-4.16,10.923,0,15.083l56.448,56.448l-56.469,56.469
			c-4.16,4.16-4.16,10.923,0,15.083c2.091,2.069,4.821,3.115,7.552,3.115c2.731,0,5.461-1.045,7.552-3.115l64-64
			C513.045,152.728,513.045,145.965,508.885,141.805z"/>
	</g>
</g>
<g>
</g>
<g>
</g>
<g>
</g>
<g>
</g>
<g>
</g>
<g>
</g>
<g>
</g>
<g>
</g>
<g>
</g>
<g>
</g>
<g>
</g>
<g>
</g>
<g>
</g>
<g>
</g>
<g>
</g>
</svg>
