<?xml version="1.0" encoding="iso-8859-1"?>
<!-- Generator: Adobe Illustrator 19.0.0, SVG Export Plug-In . SVG Version: 6.00 Build 0)  -->
<svg version="1.1" id="Layer_1" xmlns="http://www.w3.org/2000/svg" xmlns:xlink="http://www.w3.org/1999/xlink" x="0px" y="0px"
	 viewBox="0 0 512 512" style="enable-background:new 0 0 512 512;" xml:space="preserve">
<g>
	<g>
		<path d="M467,0C450.256,0,60.493,0,45,0C20.187,0,0,20.187,0,45c0,4.078,0,417.944,0,422c0,24.813,20.187,45,45,45h422
			c24.813,0,45-20.187,45-45V45C512,20.187,491.813,0,467,0z M30,45c0-8.271,6.729-15,15-15h144.787L30,189.787V45z M30,232.213
			L232.213,30h137.639L30,370.721V232.213z M482,467c0,8.271-6.729,15-15,15H45c-8.271,0-15-6.729-15-15v-53.798L412.224,30H467
			c8.271,0,15,6.729,15,15V467z"/>
	</g>
</g>
<g>
</g>
<g>
</g>
<g>
</g>
<g>
</g>
<g>
</g>
<g>
</g>
<g>
</g>
<g>
</g>
<g>
</g>
<g>
</g>
<g>
</g>
<g>
</g>
<g>
</g>
<g>
</g>
<g>
</g>
</svg>
